<?xml version="1.0" encoding="UTF-8" standalone="no"?>
<!DOCTYPE svg PUBLIC "-//W3C//DTD SVG 1.1//EN"
 "http://www.w3.org/Graphics/SVG/1.1/DTD/svg11.dtd">
<!-- Generated by graphviz version 14.0.0 (20250921.2048)
 -->
<!-- Pages: 1 -->
<svg width="862pt" height="476pt"
 viewBox="0.00 0.00 862.00 476.00" xmlns="http://www.w3.org/2000/svg" xmlns:xlink="http://www.w3.org/1999/xlink">
<g id="graph0" class="graph" transform="scale(1 1) rotate(0) translate(4 472)">
<polygon fill="white" stroke="none" points="-4,4 -4,-472 858.45,-472 858.45,4 -4,4"/>
<!-- [root] aws_instance.web (expand) -->
<g id="node1" class="node">
<title>[root] aws_instance.web (expand)</title>
<polygon fill="none" stroke="black" points="396,-324 282.5,-324 282.5,-288 396,-288 396,-324"/>
<text xml:space="preserve" text-anchor="middle" x="339.25" y="-300.57" font-family="Times,serif" font-size="14.00">aws_instance.web</text>
</g>
<!-- [root] aws_security_group.web (expand) -->
<g id="node5" class="node">
<title>[root] aws_security_group.web (expand)</title>
<polygon fill="none" stroke="black" points="235.38,-252 85.12,-252 85.12,-216 235.38,-216 235.38,-252"/>
<text xml:space="preserve" text-anchor="middle" x="160.25" y="-228.57" font-family="Times,serif" font-size="14.00">aws_security_group.web</text>
</g>
<!-- [root] aws_instance.web (expand)&#45;&gt;[root] aws_security_group.web (expand) -->
<g id="edge1" class="edge">
<title>[root] aws_instance.web (expand)&#45;&gt;[root] aws_security_group.web (expand)</title>
<path fill="none" stroke="black" d="M294.54,-287.52C270.53,-278.13 240.73,-266.47 215.3,-256.53"/>
<polygon fill="black" stroke="black" points="216.7,-253.32 206.11,-252.93 214.15,-259.83 216.7,-253.32"/>
</g>
<!-- [root] aws_subnet.public (expand) -->
<g id="node6" class="node">
<title>[root] aws_subnet.public (expand)</title>
<polygon fill="none" stroke="black" points="607.12,-252 491.38,-252 491.38,-216 607.12,-216 607.12,-252"/>
<text xml:space="preserve" text-anchor="middle" x="549.25" y="-228.57" font-family="Times,serif" font-size="14.00">aws_subnet.public</text>
</g>
<!-- [root] aws_instance.web (expand)&#45;&gt;[root] aws_subnet.public (expand) -->
<g id="edge2" class="edge">
<title>[root] aws_instance.web (expand)&#45;&gt;[root] aws_subnet.public (expand)</title>
<path fill="none" stroke="black" d="M391.7,-287.52C420.37,-277.96 456.09,-266.05 486.26,-256"/>
<polygon fill="black" stroke="black" points="487.29,-259.34 495.67,-252.86 485.08,-252.7 487.29,-259.34"/>
</g>
<!-- [root] var.instance_type -->
<g id="node10" class="node">
<title>[root] var.instance_type</title>
<polygon fill="none" stroke="black" points="357.5,-252 253,-252 253,-216 363.5,-216 363.5,-246 357.5,-252"/>
<polyline fill="none" stroke="black" points="357.5,-252 357.5,-246"/>
<polyline fill="none" stroke="black" points="363.5,-246 357.5,-246"/>
<text xml:space="preserve" text-anchor="middle" x="308.25" y="-228.57" font-family="Times,serif" font-size="14.00">var.instance_type</text>
</g>
<!-- [root] aws_instance.web (expand)&#45;&gt;[root] var.instance_type -->
<g id="edge3" class="edge">
<title>[root] aws_instance.web (expand)&#45;&gt;[root] var.instance_type</title>
<path fill="none" stroke="black" d="M331.59,-287.7C328.21,-280.07 324.16,-270.92 320.38,-262.4"/>
<polygon fill="black" stroke="black" points="323.69,-261.21 316.44,-253.49 317.29,-264.05 323.69,-261.21"/>
</g>
<!-- [root] var.key_name -->
<g id="node11" class="node">
<title>[root] var.key_name</title>
<polygon fill="none" stroke="black" points="467.12,-252 381.38,-252 381.38,-216 473.12,-216 473.12,-246 467.12,-252"/>
<polyline fill="none" stroke="black" points="467.12,-252 467.12,-246"/>
<polyline fill="none" stroke="black" points="473.12,-246 467.12,-246"/>
<text xml:space="preserve" text-anchor="middle" x="427.25" y="-228.57" font-family="Times,serif" font-size="14.00">var.key_name</text>
</g>
<!-- [root] aws_instance.web (expand)&#45;&gt;[root] var.key_name -->
<g id="edge4" class="edge">
<title>[root] aws_instance.web (expand)&#45;&gt;[root] var.key_name</title>
<path fill="none" stroke="black" d="M361,-287.7C371.69,-279.2 384.74,-268.81 396.43,-259.51"/>
<polygon fill="black" stroke="black" points="398.61,-262.25 404.26,-253.29 394.25,-256.78 398.61,-262.25"/>
</g>
<!-- [root] aws_internet_gateway.igw (expand) -->
<g id="node2" class="node">
<title>[root] aws_internet_gateway.igw (expand)</title>
<polygon fill="none" stroke="black" points="756.25,-180 596.25,-180 596.25,-144 756.25,-144 756.25,-180"/>
<text xml:space="preserve" text-anchor="middle" x="676.25" y="-156.57" font-family="Times,serif" font-size="14.00">aws_internet_gateway.igw</text>
</g>
<!-- [root] aws_vpc.main (expand) -->
<g id="node7" class="node">
<title>[root] aws_vpc.main (expand)</title>
<polygon fill="none" stroke="black" points="596.25,-108 502.25,-108 502.25,-72 596.25,-72 596.25,-108"/>
<text xml:space="preserve" text-anchor="middle" x="549.25" y="-84.58" font-family="Times,serif" font-size="14.00">aws_vpc.main</text>
</g>
<!-- [root] aws_internet_gateway.igw (expand)&#45;&gt;[root] aws_vpc.main (expand) -->
<g id="edge5" class="edge">
<title>[root] aws_internet_gateway.igw (expand)&#45;&gt;[root] aws_vpc.main (expand)</title>
<path fill="none" stroke="black" d="M644.53,-143.52C628.19,-134.51 608.08,-123.42 590.54,-113.76"/>
<polygon fill="black" stroke="black" points="592.34,-110.75 581.89,-108.99 588.96,-116.88 592.34,-110.75"/>
</g>
<!-- [root] aws_route_table.public (expand) -->
<g id="node3" class="node">
<title>[root] aws_route_table.public (expand)</title>
<polygon fill="none" stroke="black" points="767.25,-252 625.25,-252 625.25,-216 767.25,-216 767.25,-252"/>
<text xml:space="preserve" text-anchor="middle" x="696.25" y="-228.57" font-family="Times,serif" font-size="14.00">aws_route_table.public</text>
</g>
<!-- [root] aws_route_table.public (expand)&#45;&gt;[root] aws_internet_gateway.igw (expand) -->
<g id="edge6" class="edge">
<title>[root] aws_route_table.public (expand)&#45;&gt;[root] aws_internet_gateway.igw (expand)</title>
<path fill="none" stroke="black" d="M691.31,-215.7C689.17,-208.24 686.63,-199.32 684.24,-190.97"/>
<polygon fill="black" stroke="black" points="687.67,-190.21 681.55,-181.56 680.93,-192.14 687.67,-190.21"/>
</g>
<!-- [root] aws_route_table_association.public (expand) -->
<g id="node4" class="node">
<title>[root] aws_route_table_association.public (expand)</title>
<polygon fill="none" stroke="black" points="726.62,-324 517.88,-324 517.88,-288 726.62,-288 726.62,-324"/>
<text xml:space="preserve" text-anchor="middle" x="622.25" y="-300.57" font-family="Times,serif" font-size="14.00">aws_route_table_association.public</text>
</g>
<!-- [root] aws_route_table_association.public (expand)&#45;&gt;[root] aws_route_table.public (expand) -->
<g id="edge7" class="edge">
<title>[root] aws_route_table_association.public (expand)&#45;&gt;[root] aws_route_table.public (expand)</title>
<path fill="none" stroke="black" d="M640.54,-287.7C649.35,-279.37 660.07,-269.22 669.75,-260.07"/>
<polygon fill="black" stroke="black" points="671.95,-262.8 676.81,-253.39 667.14,-257.72 671.95,-262.8"/>
</g>
<!-- [root] aws_route_table_association.public (expand)&#45;&gt;[root] aws_subnet.public (expand) -->
<g id="edge8" class="edge">
<title>[root] aws_route_table_association.public (expand)&#45;&gt;[root] aws_subnet.public (expand)</title>
<path fill="none" stroke="black" d="M604.21,-287.7C595.52,-279.37 584.94,-269.22 575.39,-260.07"/>
<polygon fill="black" stroke="black" points="578.07,-257.79 568.43,-253.39 573.23,-262.84 578.07,-257.79"/>
</g>
<!-- [root] aws_security_group.web (expand)&#45;&gt;[root] aws_vpc.main (expand) -->
<g id="edge9" class="edge">
<title>[root] aws_security_group.web (expand)&#45;&gt;[root] aws_vpc.main (expand)</title>
<path fill="none" stroke="black" d="M158.6,-215.82C157.68,-195.57 159.62,-162.34 179.25,-144 223.25,-102.9 397.87,-93.54 490.62,-91.49"/>
<polygon fill="black" stroke="black" points="490.62,-95 500.55,-91.3 490.48,-88 490.62,-95"/>
</g>
<!-- [root] var.my_ip -->
<g id="node12" class="node">
<title>[root] var.my_ip</title>
<polygon fill="none" stroke="black" points="252.62,-180 187.88,-180 187.88,-144 258.62,-144 258.62,-174 252.62,-180"/>
<polyline fill="none" stroke="black" points="252.62,-180 252.62,-174"/>
<polyline fill="none" stroke="black" points="258.62,-174 252.62,-174"/>
<text xml:space="preserve" text-anchor="middle" x="223.25" y="-156.57" font-family="Times,serif" font-size="14.00">var.my_ip</text>
</g>
<!-- [root] aws_security_group.web (expand)&#45;&gt;[root] var.my_ip -->
<g id="edge10" class="edge">
<title>[root] aws_security_group.web (expand)&#45;&gt;[root] var.my_ip</title>
<path fill="none" stroke="black" d="M175.82,-215.7C183.22,-207.47 192.22,-197.48 200.37,-188.42"/>
<polygon fill="black" stroke="black" points="202.76,-191 206.84,-181.23 197.55,-186.32 202.76,-191"/>
</g>
<!-- [root] aws_subnet.public (expand)&#45;&gt;[root] aws_vpc.main (expand) -->
<g id="edge11" class="edge">
<title>[root] aws_subnet.public (expand)&#45;&gt;[root] aws_vpc.main (expand)</title>
<path fill="none" stroke="black" d="M549.25,-215.59C549.25,-191.61 549.25,-148.14 549.25,-119.42"/>
<polygon fill="black" stroke="black" points="552.75,-119.62 549.25,-109.62 545.75,-119.62 552.75,-119.62"/>
</g>
<!-- [root] provider[&quot;registry.terraform.io/hashicorp/aws&quot;] -->
<g id="node8" class="node">
<title>[root] provider[&quot;registry.terraform.io/hashicorp/aws&quot;]</title>
<polygon fill="none" stroke="black" points="549.25,-36 291.44,-18 549.25,0 807.06,-18 549.25,-36"/>
<text xml:space="preserve" text-anchor="middle" x="549.25" y="-12.57" font-family="Times,serif" font-size="14.00">provider[&quot;registry.terraform.io/hashicorp/aws&quot;]</text>
</g>
<!-- [root] aws_vpc.main (expand)&#45;&gt;[root] provider[&quot;registry.terraform.io/hashicorp/aws&quot;] -->
<g id="edge12" class="edge">
<title>[root] aws_vpc.main (expand)&#45;&gt;[root] provider[&quot;registry.terraform.io/hashicorp/aws&quot;]</title>
<path fill="none" stroke="black" d="M549.25,-71.7C549.25,-64.41 549.25,-55.73 549.25,-47.54"/>
<polygon fill="black" stroke="black" points="552.75,-47.62 549.25,-37.62 545.75,-47.62 552.75,-47.62"/>
</g>
<!-- [root] var.aws_region -->
<g id="node9" class="node">
<title>[root] var.aws_region</title>
<polygon fill="none" stroke="black" points="92.5,-396 0,-396 0,-360 98.5,-360 98.5,-390 92.5,-396"/>
<polyline fill="none" stroke="black" points="92.5,-396 92.5,-390"/>
<polyline fill="none" stroke="black" points="98.5,-390 92.5,-390"/>
<text xml:space="preserve" text-anchor="middle" x="49.25" y="-372.57" font-family="Times,serif" font-size="14.00">var.aws_region</text>
</g>
<!-- [root] output.public_ip (expand) -->
<g id="node13" class="node">
<title>[root] output.public_ip (expand)</title>
<ellipse fill="none" stroke="black" cx="244.25" cy="-378" rx="127.41" ry="18"/>
<text xml:space="preserve" text-anchor="middle" x="244.25" y="-372.57" font-family="Times,serif" font-size="14.00">[root] output.public_ip (expand)</text>
</g>
<!-- [root] output.public_ip (expand)&#45;&gt;[root] aws_instance.web (expand) -->
<g id="edge13" class="edge">
<title>[root] output.public_ip (expand)&#45;&gt;[root] aws_instance.web (expand)</title>
<path fill="none" stroke="black" d="M267.25,-360.05C279.09,-351.33 293.73,-340.54 306.71,-330.98"/>
<polygon fill="black" stroke="black" points="308.61,-333.92 314.59,-325.17 304.46,-328.29 308.61,-333.92"/>
</g>
<!-- [root] provider[&quot;registry.terraform.io/hashicorp/aws&quot;] (close) -->
<g id="node14" class="node">
<title>[root] provider[&quot;registry.terraform.io/hashicorp/aws&quot;] (close)</title>
<ellipse fill="none" stroke="black" cx="622.25" cy="-378" rx="232.2" ry="18"/>
<text xml:space="preserve" text-anchor="middle" x="622.25" y="-372.57" font-family="Times,serif" font-size="14.00">[root] provider[&quot;registry.terraform.io/hashicorp/aws&quot;] (close)</text>
</g>
<!-- [root] provider[&quot;registry.terraform.io/hashicorp/aws&quot;] (close)&#45;&gt;[root] aws_instance.web (expand) -->
<g id="edge14" class="edge">
<title>[root] provider[&quot;registry.terraform.io/hashicorp/aws&quot;] (close)&#45;&gt;[root] aws_instance.web (expand)</title>
<path fill="none" stroke="black" d="M554.82,-360.32C510.21,-349.29 451.92,-334.87 407.2,-323.81"/>
<polygon fill="black" stroke="black" points="408.16,-320.44 397.61,-321.44 406.48,-327.23 408.16,-320.44"/>
</g>
<!-- [root] provider[&quot;registry.terraform.io/hashicorp/aws&quot;] (close)&#45;&gt;[root] aws_route_table_association.public (expand) -->
<g id="edge15" class="edge">
<title>[root] provider[&quot;registry.terraform.io/hashicorp/aws&quot;] (close)&#45;&gt;[root] aws_route_table_association.public (expand)</title>
<path fill="none" stroke="black" d="M622.25,-359.7C622.25,-352.41 622.25,-343.73 622.25,-335.54"/>
<polygon fill="black" stroke="black" points="625.75,-335.62 622.25,-325.62 618.75,-335.62 625.75,-335.62"/>
</g>
<!-- [root] root -->
<g id="node15" class="node">
<title>[root] root</title>
<ellipse fill="none" stroke="black" cx="244.25" cy="-450" rx="48.07" ry="18"/>
<text xml:space="preserve" text-anchor="middle" x="244.25" y="-444.57" font-family="Times,serif" font-size="14.00">[root] root</text>
</g>
<!-- [root] root&#45;&gt;[root] var.aws_region -->
<g id="edge18" class="edge">
<title>[root] root&#45;&gt;[root] var.aws_region</title>
<path fill="none" stroke="black" d="M210.28,-436.81C182.22,-426.73 141.72,-412.2 108.36,-400.22"/>
<polygon fill="black" stroke="black" points="109.82,-397.03 99.23,-396.94 107.46,-403.61 109.82,-397.03"/>
</g>
<!-- [root] root&#45;&gt;[root] output.public_ip (expand) -->
<g id="edge16" class="edge">
<title>[root] root&#45;&gt;[root] output.public_ip (expand)</title>
<path fill="none" stroke="black" d="M244.25,-431.7C244.25,-424.41 244.25,-415.73 244.25,-407.54"/>
<polygon fill="black" stroke="black" points="247.75,-407.62 244.25,-397.62 240.75,-407.62 247.75,-407.62"/>
</g>
<!-- [root] root&#45;&gt;[root] provider[&quot;registry.terraform.io/hashicorp/aws&quot;] (close) -->
<g id="edge17" class="edge">
<title>[root] root&#45;&gt;[root] provider[&quot;registry.terraform.io/hashicorp/aws&quot;] (close)</title>
<path fill="none" stroke="black" d="M286.51,-441.17C343.62,-430.6 447.13,-411.43 524.18,-397.16"/>
<polygon fill="black" stroke="black" points="524.66,-400.63 533.86,-395.37 523.39,-393.75 524.66,-400.63"/>
</g>
</g>
</svg>
